<svg xmlns="http://www.w3.org/2000/svg" xmlns:xlink="http://www.w3.org/1999/xlink" width="768" height="508" viewBox="0 0 768 508">
  <defs>
    <linearGradient id="linear-gradient" x1="4.803" y1="-105.56" x2="5.804" y2="-105.56" gradientUnits="objectBoundingBox">
      <stop offset="0" stop-color="#fc6a28"/>
      <stop offset="1" stop-color="#f94045"/>
    </linearGradient>
  </defs>
  <g id="forged" transform="translate(-576 -348)">
    <text id="Forged_Signature_" data-name="Forged Signature!" transform="translate(576 750)" font-size="45" font-family="Montserrat-Italic, Montserrat" font-style="italic"><tspan x="178.845" y="44">Forged Signature!</tspan></text>
    <g id="layer1" transform="translate(826.996 -691.97)">
      <path id="path5937" d="M33.36,1039.98a29.363,29.363,0,0,0-20.471,50.406l78.557,78.551-78.557,78.557a29.356,29.356,0,1,0,41.518,41.514l78.554-78.557,78.615,78.557a29.359,29.359,0,0,0,41.52-41.521l-78.562-78.551,78.557-78.555a29.358,29.358,0,1,0-41.516-41.514l-78.614,78.557L54.4,1048.868a29.362,29.362,0,0,0-21.044-8.887Z" transform="translate(0 0)" fill-rule="evenodd" fill="url(#linear-gradient)"/>
    </g>
  </g>
</svg>
