<svg xmlns="http://www.w3.org/2000/svg" width="768" height="565.728" viewBox="0 0 768 565.728">
  <g id="genuine" transform="translate(-576 -300.272)">
    <g id="layer1" transform="translate(781.272 -722.09)">
      <path id="path13669" d="M178.29,2c-3.461,0-4.855,1.294-6.543,2.411a49.623,49.623,0,0,0-5.141,4.034c-3.585,3.141-7.609,7.131-11.585,11.118s-7.9,7.967-11.069,10.946c-1.586,1.49-3,2.723-4.01,3.517a5.1,5.1,0,0,1-.811.492,3.37,3.37,0,0,1-.812-.049c-1.229-.189-3.006-.566-5.067-1.082-4.122-1.02-9.409-2.556-14.71-4.059s-10.605-2.975-15.177-3.936A47.242,47.242,0,0,0,97,24.433c-1.993-.139-3.834-.571-6.863,1.205-2.99,1.744-3.55,3.527-4.452,5.338a49.079,49.079,0,0,0-2.46,6.076c-1.535,4.512-3,9.982-4.452,15.423S75.893,63.338,74.637,67.5c-.628,2.083-1.217,3.847-1.7,5.042a5.354,5.354,0,0,1-.443.836,4.353,4.353,0,0,1-.738.394c-1.159.453-2.9,1.007-4.944,1.6-4.08,1.171-9.392,2.488-14.734,3.837S41.392,81.94,36.953,83.393a47.643,47.643,0,0,0-6,2.337c-1.795.882-3.6,1.407-5.338,4.452-1.717,3-1.329,4.844-1.205,6.863a49.35,49.35,0,0,0,.935,6.494c.926,4.676,2.372,10.133,3.837,15.57s2.941,10.843,3.936,15.079c.5,2.118.876,3.939,1.058,5.215a4.913,4.913,0,0,1,.025.934,4.243,4.243,0,0,1-.443.713c-.777.97-2,2.332-3.468,3.863-2.946,3.059-6.9,6.836-10.847,10.675s-7.9,7.714-11.02,11.192A47.04,47.04,0,0,0,4.386,171.8c-1.116,1.656-2.4,3.062-2.386,6.568.015,3.462,1.269,4.832,2.386,6.519a49.443,49.443,0,0,0,4.059,5.165c3.14,3.585,7.106,7.587,11.093,11.561s7.991,7.9,10.97,11.069c1.489,1.586,2.723,3,3.517,4.01a5.23,5.23,0,0,1,.492.787,4.426,4.426,0,0,1-.025.86c-.188,1.234-.572,3.007-1.082,5.068-1.021,4.122-2.556,9.384-4.059,14.685s-2.975,10.629-3.936,15.2a46.811,46.811,0,0,0-.984,6.346c-.138,1.992-.561,3.835,1.205,6.864,1.744,2.99,3.527,3.573,5.338,4.476a48.309,48.309,0,0,0,6.076,2.436c4.512,1.535,9.957,3.026,15.4,4.477s10.864,2.85,15.029,4.107c2.083.63,3.872,1.223,5.067,1.7a4.769,4.769,0,0,1,.812.442,4.308,4.308,0,0,1,.394.738c.452,1.159,1.011,2.9,1.6,4.944,1.176,4.082,2.488,9.391,3.837,14.734s2.728,10.714,4.182,15.153a47.132,47.132,0,0,0,2.337,6c.877,1.795,1.432,3.6,4.477,5.339,3.005,1.718,4.843,1.3,6.863,1.18a50.765,50.765,0,0,0,6.468-.911c4.676-.932,10.134-2.371,15.571-3.836s10.842-2.966,15.077-3.961c2.118-.491,3.965-.856,5.24-1.033a5.167,5.167,0,0,1,.984-.025,4.165,4.165,0,0,1,.664.418c.971.781,2.308,2.021,3.837,3.494,3.059,2.943,6.861,6.871,10.7,10.822s7.715,7.9,11.192,11.02a47.511,47.511,0,0,0,5.017,4.034c1.654,1.121,3.025,2.387,6.519,2.387h.025c3.461,0,4.855-1.269,6.543-2.387a49.618,49.618,0,0,0,5.141-4.034c3.585-3.141,7.609-7.132,11.585-11.118s7.9-7.967,11.069-10.945c1.586-1.49,3-2.723,4.01-3.517a5.365,5.365,0,0,1,.811-.516,3.347,3.347,0,0,1,.812.049c1.229.189,3.006.565,5.067,1.082,4.122,1.02,9.409,2.53,14.71,4.034s10.605,3,15.177,3.961a47.243,47.243,0,0,0,6.37.96c1.994.137,3.835.594,6.864-1.181,2.988-1.743,3.549-3.526,4.452-5.337a49.619,49.619,0,0,0,2.46-6.1c1.535-4.512,3-9.958,4.452-15.4s2.875-10.863,4.132-15.028c.628-2.083,1.217-3.847,1.7-5.043a5.641,5.641,0,0,1,.418-.836,4.47,4.47,0,0,1,.762-.394c1.159-.453,2.9-1.006,4.944-1.6,4.08-1.171,9.391-2.489,14.734-3.837s10.69-2.728,15.128-4.181a47.642,47.642,0,0,0,6-2.337c1.795-.882,3.6-1.433,5.337-4.477,1.717-3,1.329-4.817,1.205-6.837a49.238,49.238,0,0,0-.934-6.493c-.927-4.676-2.373-10.136-3.837-15.571s-2.942-10.842-3.936-15.077c-.5-2.118-.877-3.939-1.058-5.215a4.927,4.927,0,0,1-.024-.934,4.209,4.209,0,0,1,.442-.714c.777-.97,2-2.331,3.468-3.861,2.946-3.059,6.9-6.86,10.847-10.7s7.9-7.714,11.02-11.192a46.933,46.933,0,0,0,4.034-5.017c1.117-1.656,2.4-3.038,2.387-6.544-.015-3.461-1.269-4.831-2.387-6.517a49.362,49.362,0,0,0-4.058-5.166c-3.14-3.585-7.107-7.585-11.094-11.561s-7.991-7.922-10.971-11.093c-1.489-1.586-2.723-2.971-3.517-3.985a5.34,5.34,0,0,1-.491-.787,4.374,4.374,0,0,1,.024-.861c.188-1.234.572-3,1.083-5.067,1.021-4.122,2.555-9.384,4.058-14.684s2.975-10.632,3.936-15.2A47.13,47.13,0,0,0,332.2,97c.137-1.992.562-3.834-1.207-6.863-1.743-2.99-3.526-3.55-5.337-4.452a48.537,48.537,0,0,0-6.075-2.435c-4.512-1.535-9.958-3.027-15.4-4.477s-10.863-2.851-15.028-4.108c-2.083-.63-3.873-1.221-5.068-1.7a4.926,4.926,0,0,1-.836-.443,4.312,4.312,0,0,1-.369-.713c-.451-1.159-1.01-2.9-1.6-4.944-1.176-4.08-2.489-9.416-3.837-14.758s-2.728-10.688-4.181-15.128a47.068,47.068,0,0,0-2.337-6c-.877-1.8-1.432-3.6-4.477-5.338-3-1.717-4.842-1.325-6.862-1.205a50.785,50.785,0,0,0-6.468.91c-4.676.932-10.134,2.372-15.571,3.837s-10.842,2.965-15.077,3.96c-2.118.491-3.965.857-5.24,1.033a5.444,5.444,0,0,1-.958.049,4.282,4.282,0,0,1-.689-.443c-.971-.781-2.308-2-3.837-3.468-3.059-2.943-6.861-6.9-10.7-10.848s-7.715-7.877-11.192-11a47.514,47.514,0,0,0-5.017-4.034c-1.654-1.121-3.025-2.411-6.519-2.411h-.025Zm-.024,13.233a38.532,38.532,0,0,1,3.172,2.583c2.992,2.683,6.778,6.5,10.578,10.4s7.634,7.91,10.994,11.143c1.68,1.617,3.213,3.041,4.7,4.231a12.091,12.091,0,0,0,5.239,2.976,13.377,13.377,0,0,0,6.051.123c1.913-.277,4.029-.725,6.346-1.279,4.633-1.083,10.09-2.585,15.472-4.034s10.686-2.863,14.734-3.665c1.8-.353,3.21-.539,4.281-.64a37.863,37.863,0,0,1,1.451,3.813c1.249,3.816,2.6,9.03,3.936,14.316s2.667,10.67,3.96,15.152c.646,2.24,1.277,4.253,1.968,6.026a11.991,11.991,0,0,0,3.05,5.19,12.444,12.444,0,0,0,5.19,3.1c1.793.718,3.846,1.379,6.124,2.066,4.556,1.375,10.037,2.8,15.423,4.231s10.68,2.9,14.586,4.231a41.081,41.081,0,0,1,4.01,1.574,37.662,37.662,0,0,1-.64,4.034c-.826,3.929-2.252,9.1-3.739,14.341s-3.035,10.575-4.156,15.1c-.562,2.263-1.016,4.316-1.3,6.2a12.051,12.051,0,0,0,.049,6.026,12.513,12.513,0,0,0,2.952,5.288c1.193,1.521,2.626,3.111,4.255,4.846,3.259,3.468,7.294,7.428,11.241,11.363s7.808,7.866,10.527,10.971a40.017,40.017,0,0,1,2.681,3.37,37.18,37.18,0,0,1-2.558,3.174c-2.68,2.991-6.495,6.753-10.405,10.551s-7.932,7.636-11.167,11c-1.617,1.68-3.04,3.237-4.23,4.723A12.026,12.026,0,0,0,310.059,213a12.473,12.473,0,0,0-.073,6.051c.272,1.913.71,4,1.254,6.321,1.087,4.633,2.608,10.09,4.059,15.472s2.837,10.71,3.64,14.759a40.2,40.2,0,0,1,.64,4.255,35.509,35.509,0,0,1-3.812,1.476c-3.817,1.247-9.006,2.6-14.292,3.936S290.8,267.91,286.323,269.2c-2.242.642-4.253,1.276-6.026,1.967a12.107,12.107,0,0,0-5.215,3.05,12.434,12.434,0,0,0-3.074,5.215c-.722,1.793-1.4,3.822-2.092,6.1-1.374,4.556-2.8,10.036-4.23,15.422s-2.876,10.7-4.206,14.61a39.327,39.327,0,0,1-1.6,4.01c-1.02-.126-2.306-.275-4.01-.64-3.931-.831-9.119-2.252-14.365-3.739s-10.551-3.034-15.079-4.156c-2.263-.554-4.341-1.021-6.223-1.3a12.223,12.223,0,0,0-6.026,0,12.366,12.366,0,0,0-5.264,2.977c-1.521,1.2-3.136,2.626-4.87,4.255-3.47,3.258-7.429,7.293-11.365,11.24s-7.841,7.809-10.945,10.529a40.229,40.229,0,0,1-3.394,2.681,39.143,39.143,0,0,1-3.148-2.583c-2.992-2.683-6.778-6.495-10.578-10.405s-7.634-7.909-10.994-11.142c-1.68-1.617-3.213-3.041-4.7-4.232a12.093,12.093,0,0,0-5.239-3,11.768,11.768,0,0,0-6.051,0c-1.913.277-4.029.7-6.346,1.254-4.633,1.083-10.09,2.584-15.472,4.035s-10.686,2.839-14.734,3.64c-1.8.353-3.211.564-4.28.665a38.037,38.037,0,0,1-1.451-3.813c-1.25-3.817-2.6-9-3.936-14.29s-2.668-10.671-3.96-15.153c-.646-2.24-1.276-4.253-1.968-6.026a12,12,0,0,0-3.05-5.19,12.448,12.448,0,0,0-5.19-3.1c-1.794-.718-3.847-1.379-6.125-2.065-4.556-1.375-10.037-2.8-15.423-4.232s-10.679-2.9-14.586-4.23a41.024,41.024,0,0,1-4.009-1.574,37.686,37.686,0,0,1,.64-4.034c.826-3.929,2.252-9.1,3.739-14.341s3.035-10.575,4.157-15.1c.561-2.263,1.016-4.317,1.3-6.2a12.03,12.03,0,0,0-.049-6.026,12.51,12.51,0,0,0-2.952-5.289c-1.193-1.521-2.626-3.109-4.255-4.845-3.259-3.468-7.294-7.429-11.241-11.365s-7.809-7.866-10.528-10.971a39.867,39.867,0,0,1-2.681-3.369,37.223,37.223,0,0,1,2.558-3.174c2.68-2.991,6.494-6.754,10.4-10.552s7.932-7.634,11.167-10.994c1.618-1.68,3.04-3.235,4.231-4.723a12.011,12.011,0,0,0,2.976-5.239,12.46,12.46,0,0,0,.074-6.051c-.272-1.914-.711-4-1.254-6.322-1.088-4.633-2.608-10.09-4.059-15.472s-2.838-10.71-3.641-14.758a40.148,40.148,0,0,1-.64-4.255,35.524,35.524,0,0,1,3.813-1.476c3.817-1.247,9.005-2.6,14.291-3.936s10.67-2.643,15.152-3.936c2.241-.642,4.252-1.276,6.026-1.968a12.107,12.107,0,0,0,5.215-3.05,12.436,12.436,0,0,0,3.075-5.215c.721-1.793,1.4-3.822,2.091-6.1,1.375-4.556,2.8-10.037,4.231-15.423s2.877-10.7,4.206-14.611a39.136,39.136,0,0,1,1.6-4.009c1.02.126,2.306.274,4.009.64,3.931.831,9.119,2.251,14.365,3.739s10.551,3.035,15.079,4.157c2.263.554,4.341,1.02,6.223,1.3a12.224,12.224,0,0,0,6.026,0,12.365,12.365,0,0,0,5.264-2.976c1.521-1.2,3.136-2.626,4.87-4.255,3.47-3.258,7.429-7.294,11.365-11.241s7.841-7.809,10.945-10.528a38.952,38.952,0,0,1,3.37-2.681Zm2.509,56.8c-3.117-.071-6.26.014-9.42.221a106.3,106.3,0,1,0,99,159.219,6.3,6.3,0,1,0-10.9-6.3,93.7,93.7,0,1,1,9.371-71.086,6.3,6.3,0,1,0,12.151-3.272A106.4,106.4,0,0,0,180.775,72.029Zm60.387,71.333v.025a6.3,6.3,0,0,0-3.443.86l-94.872,54.164-21.67-37.118a6.3,6.3,0,1,0-10.872,6.346l24.819,42.5a6.3,6.3,0,0,0,8.56,2.288l100.284-57.263a6.3,6.3,0,0,0-2.8-11.807Zm35.495,49.294a3.149,3.149,0,0,0-2.976,2.632,97.216,97.216,0,0,1-2.73,11.314,3.149,3.149,0,1,0,6.026,1.82,102.973,102.973,0,0,0,2.9-12.028,3.149,3.149,0,0,0-3.223-3.738Z" transform="translate(0 1020.362)" fill="#0dbb41"/>
    </g>
    <text id="Genuine_Signature_" data-name="Genuine Signature!" transform="translate(576 760)" font-size="45" font-family="Montserrat-Italic, Montserrat" font-style="italic"><tspan x="163.523" y="44">Genuine Signature!</tspan></text>
  </g>
</svg>
