<svg xmlns="http://www.w3.org/2000/svg" width="154.548" height="207.181" viewBox="0 0 154.548 207.181">
  <path id="Heroku_K" d="M7.738,55.052c0,28.415.9,51.669,2.1,51.669.9,0,16.542-4.136,34.891-9.04,24.962-7.232,37-9.04,49.933-8.528l16.84.776.9,59.933.605,60.189h36.092V147.015c0-61.221-.3-63.029-6.92-71.556-12.034-15.5-43.013-18.863-81.517-9.04L46.83,70.035V3.383H7.729V55.052ZM111.516,22.246q-6.651,10.117-12.937,20.407c-.606,1.288,7.516,2.064,18.051,2.064h18.945L146.4,29.733c20.752-27.9,21.059-26.351-2.4-26.351H123.541L111.507,22.238ZM7.738,177.758c0,16.271,1.2,29.711,2.4,29.711s9.929-6.712,19.55-14.983L46.839,177.5,29.394,162.775c-9.621-8.008-18.349-14.727-19.55-14.727s-2.1,13.431-2.1,29.711Z" transform="translate(-7.479 -3.122)" fill="#fff" stroke="#000" stroke-width="0.5"/>
</svg>
