<svg xmlns="http://www.w3.org/2000/svg" width="135.923" height="53.775" viewBox="0 0 135.923 53.775">
  <g id="logo_white" transform="translate(-139.722 -42.642)">
    <text id="onyx_" data-name="onyx " transform="translate(139.722 88.417)" fill="#fff" font-size="31" font-family="Montserrat-SemiBold, Montserrat" font-weight="600"><tspan x="0" y="0">ONYX </tspan></text>
    <path id="Path_13" data-name="Path 13" d="M5.563.006A3.688,3.688,0,0,1,9.469,4.045L8.28,26a4.809,4.809,0,0,1-4.368,4.5A3.688,3.688,0,0,1,.007,26.464L1.2,4.507A4.809,4.809,0,0,1,5.563.006Z" transform="matrix(0.602, 0.799, -0.799, 0.602, 269.942, 42.642)" fill="#5be8ff"/>
    <path id="Path_14" data-name="Path 14" d="M5.563.006A3.688,3.688,0,0,1,9.469,4.045L8.28,26a4.809,4.809,0,0,1-4.368,4.5A3.688,3.688,0,0,1,.007,26.464L1.2,4.507A4.809,4.809,0,0,1,5.563.006Z" transform="matrix(0.602, 0.799, -0.799, 0.602, 269.589, 56.472)" fill="#6dffb6"/>
  </g>
</svg>
