<svg xmlns="http://www.w3.org/2000/svg" width="114.201" height="46.358" viewBox="0 0 114.201 46.358">
  <g id="logo" transform="translate(-140 -42.642)">
    <text id="onyx_" data-name="onyx " transform="translate(140 82)" font-size="27" font-family="Montserrat-SemiBold, Montserrat" font-weight="600"><tspan x="0" y="0">ONYX </tspan></text>
    <path id="Path_13" data-name="Path 13" d="M4.683.005A3.1,3.1,0,0,1,7.97,3.4l-1,18.481a4.048,4.048,0,0,1-3.677,3.788,3.1,3.1,0,0,1-3.287-3.4l1-18.481A4.048,4.048,0,0,1,4.683.005Z" transform="matrix(0.602, 0.799, -0.799, 0.602, 249.401, 42.642)" fill="#5be8ff"/>
    <path id="Path_14" data-name="Path 14" d="M4.683.005A3.1,3.1,0,0,1,7.97,3.4l-1,18.481a4.048,4.048,0,0,1-3.677,3.788,3.1,3.1,0,0,1-3.287-3.4l1-18.481A4.048,4.048,0,0,1,4.683.005Z" transform="matrix(0.602, 0.799, -0.799, 0.602, 249.104, 54.283)" fill="#6dffb6"/>
  </g>
</svg>
