<svg xmlns="http://www.w3.org/2000/svg" width="227.299" height="194.278" viewBox="0 0 227.299 194.278">
  <g id="Python" transform="translate(0.25 0.25)">
    <path id="Path_18" data-name="Path 18" d="M112.728.072c-57.576,0-53.981,21.445-53.981,21.445l.064,22.217h54.944V50.4H36.988S.145,46.815.145,96.71,32.3,144.837,32.3,144.837H51.494V121.683S50.459,94.064,83.138,94.064h54.494s30.617.425,30.617-25.414V25.927S172.9.072,112.728.072Zm-30.3,14.941A10.756,10.756,0,0,1,89.424,17.5a7.68,7.68,0,0,1,0,12.01,11.081,11.081,0,0,1-13.984,0,7.68,7.68,0,0,1,0-12.01A10.756,10.756,0,0,1,82.432,15.013Z" transform="translate(-0.145 -0.072)" fill="#fff" stroke="#000" stroke-width="0.5"/>
    <path id="Path_19" data-name="Path 19" d="M121.749,209.094c57.576,0,53.981-21.445,53.981-21.445l-.064-22.216H120.722v-6.67h76.766s36.843,3.589,36.843-46.308-32.157-48.126-32.157-48.126H182.982V87.482s1.035,27.619-31.644,27.619H96.844s-30.617-.425-30.617,25.415v42.724s-4.649,25.855,55.521,25.855Zm30.3-14.939a10.756,10.756,0,0,1-6.992-2.484,7.681,7.681,0,0,1,0-12.011,11.081,11.081,0,0,1,13.984,0,7.68,7.68,0,0,1,0,12.01,10.756,10.756,0,0,1-6.992,2.484Z" transform="translate(-7.532 -15.315)" fill="#fff" stroke="#000" stroke-width="0.5"/>
  </g>
</svg>
