<svg xmlns="http://www.w3.org/2000/svg" width="258.276" height="237.49" viewBox="0 0 258.276 237.49">
  <g id="Tensorflow" transform="translate(0.563 0.279)">
    <g id="g4550" transform="translate(0 0)">
      <path id="path4508" d="M224.884,182v36.434l73.469,36.434V218.431ZM77.942,218.431v36.434l36.734,18.213V236.649Zm110.2,18.217-36.734,18.217V364.159l36.734,18.217V309.512l36.739,18.217V291.3l-36.739-18.217Z" transform="translate(-77.942 -145.568)" fill="#fff" stroke="#000" stroke-width="0.5"/>
      <path id="path4491" d="M192.479,182,82.271,236.648v36.43l73.469-36.43v36.43l36.739-18.213Zm110.208,18.217-36.739,18.217v36.434l36.739-18.217Zm-73.473,72.864L192.479,291.3v36.434l36.734-18.217Zm-36.734,54.651-36.739-18.217v72.864l36.739-18.217Z" transform="translate(-45.537 -145.568)" fill="#fff" stroke="#000" stroke-width="0.5"/>
      <path id="path4506" d="M224.884,177,77.942,249.862l36.734,18.217,110.208-54.651,73.469,36.434,36.739-18.217Zm0,109.3-36.739,18.213,36.739,18.217,36.734-18.217Z" transform="translate(-77.942 -176.998)" fill="#fff" stroke="#000" stroke-width="0.5"/>
    </g>
  </g>
</svg>
